# xmcd
#
# Track frame offsets:
#	150
#	12916
#	24151
#	38858
#	51876
#	66965
#	80030
#	95410
#	107559
#	119725
#	132934
#	147070
#	162534
#	175318
#	189754
#	202868
#	216603
#	230056
#	246439
#	261989
#
# Disc length: 3701 seconds
#
# Revision: 1
# Processed by: cddbd v1.5.2PL0 Copyright (c) Steve Scherf et al.
# Submitted via: EasyCDDAExtractor 15.2.5.1
#
DISCID=260e7314
DTITLE=Mieczyslaw Fogg -  Przeboje do tanca
DYEAR=2009
DGENRE=Oldies
TTITLE0=Wir tanca nas porwal
TTITLE1=Ach Ludwiko
TTITLE2=Notturno
TTITLE3=Upojny walc
TTITLE4=To ostatnia niedziela
TTITLE5=Nikt mnie nie zmusi
TTITLE6=Winna jest wiosna dziewczyno
TTITLE7=Muchacha
TTITLE8=Prawdziwa milosc
TTITLE9=Umówilem sie z nia na dziewiata
TTITLE10=Walc cyganski
TTITLE11=Jedna jedyna
TTITLE12=Ty masz dla mnie cos
TTITLE13=Marilou
TTITLE14=Ja lubie gwizdac
TTITLE15=Zaplakane oczy
TTITLE16=Przechodzisz i nie widzisz mnie
TTITLE17=Czy ty wiesz mój kochany
TTITLE18=Cicho grajcie mi wciaz
TTITLE19=Tylko we Lwowie
EXTD=
EXTT0=
EXTT1=
EXTT2=
EXTT3=
EXTT4=
EXTT5=
EXTT6=
EXTT7=
EXTT8=
EXTT9=
EXTT10=
EXTT11=
EXTT12=
EXTT13=
EXTT14=
EXTT15=
EXTT16=
EXTT17=
EXTT18=
EXTT19=
PLAYORDER=
